<svg xmlns="http://www.w3.org/2000/svg" viewBox="0 0 64 64" role="img" aria-label="AVD icon">
  <defs>
    <linearGradient id="bg" x1="8" y1="4" x2="58" y2="60" gradientUnits="userSpaceOnUse">
      <stop stop-color="#102A46"/>
      <stop offset="0.58" stop-color="#1A3A5C"/>
      <stop offset="1" stop-color="#0B5B70"/>
    </linearGradient>
    <linearGradient id="accent" x1="17" y1="48" x2="48" y2="16" gradientUnits="userSpaceOnUse">
      <stop stop-color="#6EE7B7"/>
      <stop offset="1" stop-color="#38BDF8"/>
    </linearGradient>
    <filter id="softShadow" x="-20%" y="-20%" width="140%" height="140%">
      <feDropShadow dx="0" dy="4" stdDeviation="3" flood-color="#061827" flood-opacity="0.26"/>
    </filter>
  </defs>
  <rect x="4" y="4" width="56" height="56" rx="13" fill="url(#bg)"/>
  <path d="M12 18.5 32 9l20 9.5v13.8c0 11.2-8.2 18.1-20 21.7-11.8-3.6-20-10.5-20-21.7V18.5Z" fill="rgba(255,255,255,0.05)" stroke="rgba(255,255,255,0.78)" stroke-width="1.7" filter="url(#softShadow)"/>
  <path d="M20.5 43 31.9 19.5 43.5 43" fill="none" stroke="url(#accent)" stroke-width="4.1" stroke-linecap="round" stroke-linejoin="round"/>
  <path d="M25.2 34.7h13.6" stroke="#E7F8FF" stroke-width="3" stroke-linecap="round"/>
  <path d="M18 24.5h5.7M40.3 24.5H46M32 14.2v5.4M24.2 45.8l-3.8 4.4M39.8 45.8l3.8 4.4" stroke="rgba(190,242,255,0.45)" stroke-width="1.7" stroke-linecap="round"/>
  <circle cx="49" cy="15" r="2.1" fill="#A7F3D0"/>
  <circle cx="51.8" cy="24" r="1.35" fill="#E0F2FE" opacity="0.9"/>
  <circle cx="45.2" cy="30.5" r="1.25" fill="#E0F2FE" opacity="0.82"/>
  <circle cx="50.5" cy="39.6" r="1.55" fill="#A7F3D0" opacity="0.9"/>
  <path d="M49 15 51.8 24 45.2 30.5 50.5 39.6" stroke="rgba(167,243,208,0.42)" stroke-width="1" fill="none"/>
  <path d="M15 49c8 4.2 25.9 4.2 34 0" stroke="rgba(255,255,255,0.16)" stroke-width="1.6" stroke-linecap="round"/>
</svg>
